<svg width="25" height="22" viewBox="0 0 25 22" fill="none" xmlns="http://www.w3.org/2000/svg">
<ellipse cx="12.4932" cy="10.8043" rx="12.4932" ry="10.8043" fill="#FFB400"/>
<g clip-path="url(#clip0_2_460)">
<path d="M12.2879 6.05029C13.938 6.05029 14.1438 6.05555 14.7912 6.08181C15.438 6.10807 15.8783 6.19578 16.2658 6.32603C16.6666 6.45943 17.0042 6.6401 17.3419 6.93159C17.6507 7.19414 17.8897 7.51173 18.0421 7.86226C18.1921 8.19681 18.2942 8.57811 18.3245 9.13746C18.3531 9.69733 18.361 9.87538 18.361 11.3024C18.361 12.7294 18.3549 12.9074 18.3245 13.4673C18.2942 14.0266 18.1921 14.4074 18.0421 14.7425C17.8901 15.0932 17.6511 15.4109 17.3419 15.6731C17.0382 15.9401 16.671 16.1467 16.2658 16.2787C15.8789 16.4084 15.438 16.4967 14.7912 16.5229C14.1438 16.5476 13.938 16.5544 12.2879 16.5544C10.6379 16.5544 10.432 16.5492 9.78459 16.5229C9.13781 16.4967 8.69751 16.4084 8.31005 16.2787C7.90457 16.1471 7.53727 15.9404 7.2339 15.6731C6.92503 15.4106 6.68607 15.093 6.53368 14.7425C6.38307 14.4079 6.28165 14.0266 6.25128 13.4673C6.22274 12.9074 6.21484 12.7294 6.21484 11.3024C6.21484 9.87538 6.22092 9.69733 6.25128 9.13746C6.28165 8.57759 6.38307 8.19734 6.53368 7.86226C6.68565 7.51151 6.92467 7.19384 7.2339 6.93159C7.53736 6.66438 7.90463 6.45771 8.31005 6.32603C8.69751 6.19578 9.1372 6.10807 9.78459 6.08181C10.432 6.05712 10.6379 6.05029 12.2879 6.05029ZM12.2879 8.67633C11.4826 8.67633 10.7102 8.953 10.1408 9.44548C9.57129 9.93795 9.25137 10.6059 9.25137 11.3024C9.25137 11.9988 9.57129 12.6668 10.1408 13.1593C10.7102 13.6517 11.4826 13.9284 12.2879 13.9284C13.0932 13.9284 13.8656 13.6517 14.4351 13.1593C15.0045 12.6668 15.3244 11.9988 15.3244 11.3024C15.3244 10.6059 15.0045 9.93795 14.4351 9.44548C13.8656 8.953 13.0932 8.67633 12.2879 8.67633ZM16.2354 8.54503C16.2354 8.37091 16.1554 8.20392 16.013 8.08081C15.8707 7.95769 15.6776 7.88852 15.4763 7.88852C15.2749 7.88852 15.0818 7.95769 14.9395 8.08081C14.7971 8.20392 14.7171 8.37091 14.7171 8.54503C14.7171 8.71914 14.7971 8.88613 14.9395 9.00925C15.0818 9.13237 15.2749 9.20154 15.4763 9.20154C15.6776 9.20154 15.8707 9.13237 16.013 9.00925C16.1554 8.88613 16.2354 8.71914 16.2354 8.54503ZM12.2879 9.72674C12.7711 9.72674 13.2345 9.89275 13.5762 10.1882C13.9179 10.4837 14.1098 10.8845 14.1098 11.3024C14.1098 11.7202 13.9179 12.121 13.5762 12.4165C13.2345 12.712 12.7711 12.878 12.2879 12.878C11.8047 12.878 11.3413 12.712 10.9996 12.4165C10.6579 12.121 10.466 11.7202 10.466 11.3024C10.466 10.8845 10.6579 10.4837 10.9996 10.1882C11.3413 9.89275 11.8047 9.72674 12.2879 9.72674Z" fill="#2B2B2B"/>
</g>
<defs>
<clipPath id="clip0_2_460">
<rect width="14.5753" height="12.605" fill="white" transform="translate(5 5)"/>
</clipPath>
</defs>
</svg>
