<svg width="25" height="22" viewBox="0 0 25 22" fill="none" xmlns="http://www.w3.org/2000/svg">
<ellipse cx="12.4932" cy="10.8043" rx="12.4932" ry="10.8043" fill="#FFB400"/>
<g clip-path="url(#clip0_2_464)">
<path d="M18.6649 7.47228C18.2012 7.64964 17.7095 7.76612 17.2061 7.81787C17.7367 7.54341 18.1339 7.11147 18.3235 6.60254C17.8256 6.85884 17.2796 7.03846 16.7105 7.13563C16.3283 6.78194 15.8217 6.54737 15.2694 6.46839C14.7171 6.38941 14.1501 6.47045 13.6566 6.69889C13.163 6.92734 12.7706 7.2904 12.5402 7.73163C12.3099 8.17286 12.2546 8.66754 12.3829 9.13877C11.373 9.09499 10.385 8.86803 9.48317 8.47263C8.58129 8.07722 7.78565 7.5222 7.1479 6.84361C6.92216 7.17893 6.80353 7.56011 6.80416 7.94812C6.80416 8.70967 7.25236 9.38246 7.93375 9.77637C7.53051 9.76539 7.13614 9.67121 6.78352 9.50168V9.529C6.78364 10.0362 6.98658 10.5277 7.35794 10.9203C7.72929 11.3129 8.2462 11.5823 8.82103 11.6829C8.44669 11.7706 8.05419 11.7835 7.67322 11.7207C7.83529 12.1573 8.15117 12.5391 8.57664 12.8126C9.00211 13.0862 9.51586 13.2379 10.046 13.2464C9.51911 13.6042 8.91588 13.8688 8.27074 14.0249C7.6256 14.1809 6.95121 14.2255 6.28613 14.1561C7.44712 14.8018 8.79862 15.1446 10.179 15.1435C14.851 15.1435 17.4059 11.7963 17.4059 8.89349C17.4059 8.79896 17.4029 8.70337 17.398 8.60988C17.8953 8.29905 18.3245 7.91399 18.6655 7.47281L18.6649 7.47228Z" fill="#2B2B2B"/>
</g>
<defs>
<clipPath id="clip0_2_464">
<rect width="14.5753" height="12.605" fill="white" transform="translate(5.20557 4.50195)"/>
</clipPath>
</defs>
</svg>
